<svg xmlns="http://www.w3.org/2000/svg" id="&#x421;&#x43B;&#x43E;&#x439;_2" data-name="&#x421;&#x43B;&#x43E;&#x439; 2" viewBox="0 0 400.21 223.51"><defs><style>.cls-1{fill:#e87e6c;}</style></defs><path d="M103.35,88.58Q91,83,68.42,79.89,30.5,76.4,30.49,55.22V54.13q0-3.9,2.61-9.49Q37,37.16,46.17,33.05a31.18,31.18,0,0,1,7-2.16q8.05-1.52,8-2.13V18.07h-.41Q46.51,19.67,38,23.47,16.38,34.15,16.38,52.23v4.59q0,17.68,17.51,27.27,10.32,5.59,46.74,10.58Q108,101.17,108,120.44a26.88,26.88,0,0,1-5.71,16.27q-11.5,12.58-32.73,12.59h-4.9Q40.7,149.3,24,129.13c-5.47,2.85-10.17,5.21-11.72,5.92l1.11,2.07Q28,161.38,67.63,161.38a85.65,85.65,0,0,0,22.42-3q32.33-9.39,32.32-37.15v-1.9Q122.37,98.67,103.35,88.58Z"></path><path d="M177,18.17h17.61v.4L135.09,87.38v.4L200.55,161v.4H182.13L130,103.06c-1.87-2.2-2.81-5.19-2.81-9q0-2.29.81-18.37Q176.62,18.17,177,18.17Z"></path><path class="cls-1" d="M207.22,18.17h72.16c.53.07.8.34.8.8V32.25a.71.71,0,0,1-.8.8H207.22a.7.7,0,0,1-.8-.8V19C206.48,18.44,206.75,18.17,207.22,18.17Zm0,63.82h72.16c.53.07.8.3.8.7V96.47c0,.47-.27.7-.8.7H207.22c-.54,0-.8-.23-.8-.7V82.69A.72.72,0,0,1,207.22,82Zm0,64.11h72.16c.53.07.8.33.8.8v13.68a.71.71,0,0,1-.8.8H207.22a.71.71,0,0,1-.8-.8V146.9C206.48,146.37,206.75,146.1,207.22,146.1Z"></path><path d="M294,18.17H307.7c.54.07.8.34.8.8v77.1c3,0,6.41-.14,10.21-.4q13.11.39,18.42.4,25.62,0,33.73-13,5.49-9.59,5.5-18.38,0-19.47-16.41-28.16c-4.87-1.4-7.38-2.43-7.51-3.1V19.67a.74.74,0,0,1,.8-.7q38.43,8.3,38.43,44.94,0,30.66-27.42,42.64a70.55,70.55,0,0,1-22.82,3.6H309.7c-.53.07-.8.3-.8.7v49.73a.71.71,0,0,1-.8.8H294a.71.71,0,0,1-.8-.8V19C293.33,18.44,293.59,18.17,294,18.17Z"></path><path d="M14.83,182.92H12.27v1.2h.35c1.17,0,1.86,1,1.86,2.75v32.84h3.4v-34A2.85,2.85,0,0,0,14.83,182.92Z"></path><path d="M53.42,191.68a10.89,10.89,0,0,0-8.79,4.11V194.7a2.84,2.84,0,0,0-3-2.76H39v1.21h.35c1.17,0,1.86,1,1.86,2.75v23.81h3.4V203.12A8.23,8.23,0,0,1,53,194.7c4.83,0,7.6,2.67,7.6,7.33v17.68H64V202C64,195.84,59.77,191.68,53.42,191.68Z"></path><path d="M97.44,216.45a13,13,0,0,1-2.09.14c-3.09,0-5.15-.93-5.15-5.48V195h6.58v-3H90.2V188a2.85,2.85,0,0,0-3-2.75H84.6v1.2h.34c1.17,0,1.87,1,1.87,2.75v2.75H85.56l-1.94.8c-.57.27-.64.39-.64,1V195h3.83v16.16c0,5.79,2.79,8.6,8.54,8.6a11.3,11.3,0,0,0,2.68-.27l.33-.07-.57-3Z"></path><path d="M126.82,191.68c-7,0-11,3.77-11,10.35v7.59c0,6.58,4,10.35,11,10.35,4.51,0,8-1.9,9.93-5.34l.14-.24-2.18-1.89-.22.33a8.78,8.78,0,0,1-7.67,4.12c-4.86,0-7.65-2.67-7.65-7.33v-2.29h17.91c.69,0,.84-.16.84-.86V202C137.92,195.45,133.88,191.68,126.82,191.68Zm0,3c4.9,0,7.71,2.67,7.71,7.33v2.29H119.17V202C119.17,197.37,122,194.7,126.82,194.7Z"></path><path d="M170.18,191.68a8.72,8.72,0,0,0-7.56,4v-1a2.85,2.85,0,0,0-3.05-2.76h-2.46v1.21h.35c1.17,0,1.86,1,1.86,2.75v23.81h3.4V203.12c0-5,2.93-8.27,7.46-8.27a5,5,0,0,1,1.62.23l.41.18.57-3.09-.26-.1A5.89,5.89,0,0,0,170.18,191.68Z"></path><path d="M192.47,191.94h-2.56v1.21h.35c1.17,0,1.86,1,1.86,2.75v23.81h3.4v-25A2.85,2.85,0,0,0,192.47,191.94Z"></path><path d="M193.6,182.66a2.49,2.49,0,0,0-2.41,2.56,2.46,2.46,0,0,0,2.41,2.51,2.54,2.54,0,0,0,0-5.07Z"></path><path d="M228.6,191.68c-7.13,0-11.39,3.87-11.39,10.35v7.59c0,6.48,4.26,10.35,11.39,10.35S240,216.1,240,209.62V202C240,195.55,235.74,191.68,228.6,191.68Zm0,25.27c-5,0-8-2.74-8-7.33V202c0-4.59,3-7.33,8-7.33s8,2.74,8,7.33v7.59C236.6,214.21,233.61,217,228.6,217Z"></path><path d="M272.25,191.68a8.69,8.69,0,0,0-7.55,4v-1a2.86,2.86,0,0,0-3.05-2.76h-2.46v1.21h.35c1.16,0,1.86,1,1.86,2.75v23.81h3.39V203.12c0-5,2.93-8.27,7.46-8.27a5.05,5.05,0,0,1,1.63.23l.4.18.57-3.09-.26-.1A5.85,5.85,0,0,0,272.25,191.68Z"></path><path d="M302.76,203.91c-3.42-.59-6.49-1.4-6.49-4.82,0-3,3.28-4.29,6.33-4.29A12.53,12.53,0,0,1,310,197l.33.25,1.4-2.81-.24-.17a15.57,15.57,0,0,0-8.89-2.59c-4.86,0-9.77,2.34-9.77,7.57,0,5.92,5.24,7.54,9.81,8.28,3.66.62,6.1,1.68,6.1,4.87,0,3.87-3.82,4.45-6.09,4.45a14.72,14.72,0,0,1-9-2.81l-.33-.27-1.4,2.75.21.17A16.72,16.72,0,0,0,302.6,220c6,0,9.58-2.89,9.58-7.72C312.18,206.25,307.14,204.65,302.76,203.91Z"></path></svg>